<?xml version="1.0" encoding="UTF-8"?>
<svg width="19px" height="19px" viewBox="0 0 19 19" version="1.1" xmlns="http://www.w3.org/2000/svg"
     xmlns:xlink="http://www.w3.org/1999/xlink">
    <!-- Generator: Sketch 50.2 (55047) - http://www.bohemiancoding.com/sketch -->
    <title>search</title>
    <desc>Created with Sketch.</desc>
    <defs></defs>
    <g id="Page-1" stroke="none" stroke-width="1" fill="none" fill-rule="evenodd">
        <g id="Books" transform="translate(-339.000000, -48.000000)" fill="#2C2605">
            <path d="M342.099121,60.335737 C339.549554,57.7846851 339.54896,53.6515833 342.099121,51.0996408 C344.65047,48.5476983 348.785056,48.5488858 351.335217,51.0990471 C353.88241,53.6477239 353.886566,57.7840914 351.335811,60.335737 C348.784759,62.8870857 344.651064,62.8858982 342.099121,60.335737 M357.826105,65.9861699 L352.578532,60.7385972 C355.181241,57.7066069 355.051506,53.1329417 352.177157,50.2612642 C349.163869,47.2456021 344.274032,47.2470864 341.260151,50.2606704 C338.247161,53.2736607 338.245676,58.1632015 341.261338,61.1764886 C344.133907,64.0502442 348.70579,64.1823539 351.738968,61.5781613 L356.985353,66.8245465 L356.986244,66.825734 C357.218401,67.0578907 357.593948,67.0578907 357.826105,66.825734 C358.057965,66.594468 358.057965,66.2186235 357.826105,65.9861699"
                  id="search"></path>
        </g>
    </g>
</svg>
